<mxfile host="app.diagrams.net" agent="Mozilla/5.0 (X11; CrOS x86_64 14541.0.0) AppleWebKit/537.36 (KHTML, like Gecko) Chrome/135.0.0.0 Safari/537.36" version="28.0.7">
  <diagram name="Page-1" id="MZ3_oT6_pSthDkAcg5yS">
    <mxGraphModel dx="1426" dy="1858" grid="1" gridSize="10" guides="1" tooltips="1" connect="1" arrows="1" fold="1" page="1" pageScale="1" pageWidth="850" pageHeight="1100" math="0" shadow="0">
      <root>
        <mxCell id="0" />
        <mxCell id="1" parent="0" />
        <mxCell id="SpXzyu9s4scRP7gDGXKe-4" value="Password cracker" style="whiteSpace=wrap;html=1;aspect=fixed;fontSize=18;" parent="1" vertex="1">
          <mxGeometry x="20" y="20" width="190" height="190" as="geometry" />
        </mxCell>
        <mxCell id="SpXzyu9s4scRP7gDGXKe-5" value="" style="group" parent="1" vertex="1" connectable="0">
          <mxGeometry x="700" y="30" width="120" height="160" as="geometry" />
        </mxCell>
        <mxCell id="SpXzyu9s4scRP7gDGXKe-1" value="" style="verticalLabelPosition=bottom;html=1;verticalAlign=top;align=center;strokeColor=none;fillColor=#00BEF2;shape=mxgraph.azure.cloud_services_configuration_file;pointerEvents=1;" parent="SpXzyu9s4scRP7gDGXKe-5" vertex="1">
          <mxGeometry x="15" y="50" width="90" height="110" as="geometry" />
        </mxCell>
        <mxCell id="SpXzyu9s4scRP7gDGXKe-2" value="Password In file" style="text;html=1;align=center;verticalAlign=middle;whiteSpace=wrap;rounded=0;fontSize=15;" parent="SpXzyu9s4scRP7gDGXKe-5" vertex="1">
          <mxGeometry width="120" height="60" as="geometry" />
        </mxCell>
        <mxCell id="SpXzyu9s4scRP7gDGXKe-9" value="" style="endArrow=none;html=1;rounded=0;entryX=0.027;entryY=0.122;entryDx=0;entryDy=0;entryPerimeter=0;endFill=0;startArrow=classic;startFill=1;" parent="1" target="SpXzyu9s4scRP7gDGXKe-1" edge="1">
          <mxGeometry width="50" height="50" relative="1" as="geometry">
            <mxPoint x="210" y="90" as="sourcePoint" />
            <mxPoint x="260" y="40" as="targetPoint" />
          </mxGeometry>
        </mxCell>
        <mxCell id="SpXzyu9s4scRP7gDGXKe-10" value="1. Read password" style="text;html=1;align=center;verticalAlign=middle;whiteSpace=wrap;rounded=0;fontSize=16;" parent="1" vertex="1">
          <mxGeometry x="395" y="50" width="125" height="30" as="geometry" />
        </mxCell>
        <mxCell id="SpXzyu9s4scRP7gDGXKe-11" value="We need to know&amp;nbsp;&lt;div&gt;password&amp;nbsp;&lt;/div&gt;&lt;div&gt;to validate a match.&lt;/div&gt;" style="ellipse;shape=cloud;whiteSpace=wrap;html=1;" parent="1" vertex="1">
          <mxGeometry x="500" y="-40" width="190" height="110" as="geometry" />
        </mxCell>
        <mxCell id="SpXzyu9s4scRP7gDGXKe-13" value="Python" style="text;html=1;align=center;verticalAlign=middle;whiteSpace=wrap;rounded=0;" parent="1" vertex="1">
          <mxGeometry x="730" y="240" width="60" height="30" as="geometry" />
        </mxCell>
        <mxCell id="SpXzyu9s4scRP7gDGXKe-14" value="" style="endArrow=classic;html=1;rounded=0;exitX=0.102;exitY=0.407;exitDx=0;exitDy=0;exitPerimeter=0;entryX=1.02;entryY=0.602;entryDx=0;entryDy=0;entryPerimeter=0;curved=1;" parent="1" target="SpXzyu9s4scRP7gDGXKe-4" edge="1">
          <mxGeometry width="50" height="50" relative="1" as="geometry">
            <mxPoint x="720.2" y="330.6999999999998" as="sourcePoint" />
            <mxPoint x="540" y="160" as="targetPoint" />
            <Array as="points">
              <mxPoint x="590" y="330" />
              <mxPoint x="470" y="140" />
            </Array>
          </mxGeometry>
        </mxCell>
        <mxCell id="SpXzyu9s4scRP7gDGXKe-15" value="2. Get all printable ascii chars" style="text;html=1;align=center;verticalAlign=middle;whiteSpace=wrap;rounded=0;fontSize=17;" parent="1" vertex="1">
          <mxGeometry x="500" y="150" width="110" height="50" as="geometry" />
        </mxCell>
        <mxCell id="SpXzyu9s4scRP7gDGXKe-16" value="" style="shape=mxgraph.signs.animals.snake;html=1;pointerEvents=1;fillColor=#000000;strokeColor=none;verticalLabelPosition=bottom;verticalAlign=top;align=center;" parent="1" vertex="1">
          <mxGeometry x="730" y="270" width="98" height="98" as="geometry" />
        </mxCell>
        <mxCell id="SpXzyu9s4scRP7gDGXKe-17" value="" style="swimlane;startSize=0;" parent="1" vertex="1">
          <mxGeometry x="160" y="460" width="860" height="870" as="geometry" />
        </mxCell>
        <mxCell id="SpXzyu9s4scRP7gDGXKe-20" value="" style="ellipse;html=1;shape=startState;fillColor=#000000;strokeColor=#ff0000;" parent="SpXzyu9s4scRP7gDGXKe-17" vertex="1">
          <mxGeometry x="40" y="20" width="30" height="30" as="geometry" />
        </mxCell>
        <mxCell id="SpXzyu9s4scRP7gDGXKe-21" value="" style="edgeStyle=orthogonalEdgeStyle;html=1;verticalAlign=bottom;endArrow=open;endSize=8;strokeColor=#ff0000;rounded=0;" parent="SpXzyu9s4scRP7gDGXKe-17" source="SpXzyu9s4scRP7gDGXKe-20" edge="1">
          <mxGeometry relative="1" as="geometry">
            <mxPoint x="55" y="110" as="targetPoint" />
          </mxGeometry>
        </mxCell>
        <mxCell id="SpXzyu9s4scRP7gDGXKe-22" value="Declare maximum password length,&lt;div&gt;max_pass_len&lt;/div&gt;" style="rounded=0;whiteSpace=wrap;html=1;" parent="SpXzyu9s4scRP7gDGXKe-17" vertex="1">
          <mxGeometry x="20" y="110" width="120" height="60" as="geometry" />
        </mxCell>
        <mxCell id="SpXzyu9s4scRP7gDGXKe-23" value="We do not know password len&amp;nbsp;&lt;div&gt;so we need to check all lengths&amp;nbsp;&lt;/div&gt;&lt;div&gt;from 1 to assumed maximum.&amp;nbsp;&lt;/div&gt;&lt;div&gt;Without max program could ran in infinity.&lt;/div&gt;" style="ellipse;shape=cloud;whiteSpace=wrap;html=1;" parent="SpXzyu9s4scRP7gDGXKe-17" vertex="1">
          <mxGeometry x="95" y="-10" width="330" height="160" as="geometry" />
        </mxCell>
        <mxCell id="SpXzyu9s4scRP7gDGXKe-27" value="" style="edgeStyle=orthogonalEdgeStyle;rounded=0;orthogonalLoop=1;jettySize=auto;html=1;" parent="SpXzyu9s4scRP7gDGXKe-17" target="SpXzyu9s4scRP7gDGXKe-26" edge="1">
          <mxGeometry relative="1" as="geometry">
            <mxPoint x="80" y="170" as="sourcePoint" />
          </mxGeometry>
        </mxCell>
        <mxCell id="SpXzyu9s4scRP7gDGXKe-30" value="" style="edgeStyle=orthogonalEdgeStyle;rounded=0;orthogonalLoop=1;jettySize=auto;html=1;" parent="SpXzyu9s4scRP7gDGXKe-17" source="SpXzyu9s4scRP7gDGXKe-26" target="SpXzyu9s4scRP7gDGXKe-29" edge="1">
          <mxGeometry relative="1" as="geometry" />
        </mxCell>
        <mxCell id="SpXzyu9s4scRP7gDGXKe-26" value="Declare i = 1" style="rounded=0;whiteSpace=wrap;html=1;" parent="SpXzyu9s4scRP7gDGXKe-17" vertex="1">
          <mxGeometry x="20" y="220" width="120" height="60" as="geometry" />
        </mxCell>
        <mxCell id="SpXzyu9s4scRP7gDGXKe-33" value="" style="edgeStyle=orthogonalEdgeStyle;rounded=0;orthogonalLoop=1;jettySize=auto;html=1;" parent="SpXzyu9s4scRP7gDGXKe-17" source="SpXzyu9s4scRP7gDGXKe-29" target="SpXzyu9s4scRP7gDGXKe-32" edge="1">
          <mxGeometry relative="1" as="geometry" />
        </mxCell>
        <mxCell id="SpXzyu9s4scRP7gDGXKe-29" value="i &amp;lt; max_pass_len" style="rhombus;whiteSpace=wrap;html=1;" parent="SpXzyu9s4scRP7gDGXKe-17" vertex="1">
          <mxGeometry x="25" y="340" width="110" height="100" as="geometry" />
        </mxCell>
        <mxCell id="SpXzyu9s4scRP7gDGXKe-31" value="No" style="text;html=1;align=center;verticalAlign=middle;whiteSpace=wrap;rounded=0;" parent="SpXzyu9s4scRP7gDGXKe-17" vertex="1">
          <mxGeometry x="20" y="440" width="60" height="30" as="geometry" />
        </mxCell>
        <mxCell id="SpXzyu9s4scRP7gDGXKe-32" value="Cannot crack password" style="rounded=0;whiteSpace=wrap;html=1;" parent="SpXzyu9s4scRP7gDGXKe-17" vertex="1">
          <mxGeometry x="20" y="510" width="120" height="60" as="geometry" />
        </mxCell>
        <mxCell id="SpXzyu9s4scRP7gDGXKe-38" value="" style="edgeStyle=orthogonalEdgeStyle;rounded=0;orthogonalLoop=1;jettySize=auto;html=1;" parent="SpXzyu9s4scRP7gDGXKe-17" source="SpXzyu9s4scRP7gDGXKe-34" target="SpXzyu9s4scRP7gDGXKe-37" edge="1">
          <mxGeometry relative="1" as="geometry" />
        </mxCell>
        <mxCell id="SpXzyu9s4scRP7gDGXKe-34" value="Generate all possible words of len i from set from step 2." style="rounded=0;whiteSpace=wrap;html=1;" parent="SpXzyu9s4scRP7gDGXKe-17" vertex="1">
          <mxGeometry x="200" y="510" width="120" height="60" as="geometry" />
        </mxCell>
        <mxCell id="SpXzyu9s4scRP7gDGXKe-35" value="" style="endArrow=classic;html=1;rounded=0;entryX=0.5;entryY=0;entryDx=0;entryDy=0;exitX=1;exitY=1;exitDx=0;exitDy=0;curved=1;" parent="SpXzyu9s4scRP7gDGXKe-17" source="SpXzyu9s4scRP7gDGXKe-29" target="SpXzyu9s4scRP7gDGXKe-34" edge="1">
          <mxGeometry width="50" height="50" relative="1" as="geometry">
            <mxPoint x="110" y="420" as="sourcePoint" />
            <mxPoint x="160" y="370" as="targetPoint" />
            <Array as="points">
              <mxPoint x="130" y="440" />
              <mxPoint x="260" y="450" />
            </Array>
          </mxGeometry>
        </mxCell>
        <mxCell id="SpXzyu9s4scRP7gDGXKe-40" value="" style="edgeStyle=orthogonalEdgeStyle;rounded=0;orthogonalLoop=1;jettySize=auto;html=1;" parent="SpXzyu9s4scRP7gDGXKe-17" source="SpXzyu9s4scRP7gDGXKe-37" target="SpXzyu9s4scRP7gDGXKe-39" edge="1">
          <mxGeometry relative="1" as="geometry" />
        </mxCell>
        <mxCell id="SpXzyu9s4scRP7gDGXKe-37" value="Check each word if equal password from step 1." style="rounded=0;whiteSpace=wrap;html=1;" parent="SpXzyu9s4scRP7gDGXKe-17" vertex="1">
          <mxGeometry x="200" y="620" width="120" height="60" as="geometry" />
        </mxCell>
        <mxCell id="SpXzyu9s4scRP7gDGXKe-42" value="" style="edgeStyle=orthogonalEdgeStyle;rounded=0;orthogonalLoop=1;jettySize=auto;html=1;" parent="SpXzyu9s4scRP7gDGXKe-17" source="SpXzyu9s4scRP7gDGXKe-39" target="SpXzyu9s4scRP7gDGXKe-41" edge="1">
          <mxGeometry relative="1" as="geometry" />
        </mxCell>
        <mxCell id="SpXzyu9s4scRP7gDGXKe-44" value="" style="edgeStyle=orthogonalEdgeStyle;rounded=0;orthogonalLoop=1;jettySize=auto;html=1;" parent="SpXzyu9s4scRP7gDGXKe-17" source="SpXzyu9s4scRP7gDGXKe-39" target="SpXzyu9s4scRP7gDGXKe-43" edge="1">
          <mxGeometry relative="1" as="geometry" />
        </mxCell>
        <mxCell id="SpXzyu9s4scRP7gDGXKe-39" value="&lt;div&gt;&lt;br&gt;&lt;/div&gt;Password match&lt;div&gt;word&lt;/div&gt;" style="rhombus;whiteSpace=wrap;html=1;" parent="SpXzyu9s4scRP7gDGXKe-17" vertex="1">
          <mxGeometry x="205" y="740" width="110" height="100" as="geometry" />
        </mxCell>
        <mxCell id="SpXzyu9s4scRP7gDGXKe-41" value="Password cracked succesfully" style="rounded=0;whiteSpace=wrap;html=1;" parent="SpXzyu9s4scRP7gDGXKe-17" vertex="1">
          <mxGeometry x="25" y="760" width="120" height="60" as="geometry" />
        </mxCell>
        <mxCell id="SpXzyu9s4scRP7gDGXKe-43" value="i++" style="rounded=0;whiteSpace=wrap;html=1;" parent="SpXzyu9s4scRP7gDGXKe-17" vertex="1">
          <mxGeometry x="380" y="760" width="120" height="60" as="geometry" />
        </mxCell>
        <mxCell id="SpXzyu9s4scRP7gDGXKe-45" value="Yes" style="text;html=1;align=center;verticalAlign=middle;whiteSpace=wrap;rounded=0;" parent="SpXzyu9s4scRP7gDGXKe-17" vertex="1">
          <mxGeometry x="120" y="400" width="60" height="30" as="geometry" />
        </mxCell>
        <mxCell id="SpXzyu9s4scRP7gDGXKe-46" value="Yes" style="text;html=1;align=center;verticalAlign=middle;whiteSpace=wrap;rounded=0;" parent="SpXzyu9s4scRP7gDGXKe-17" vertex="1">
          <mxGeometry x="145" y="760" width="60" height="30" as="geometry" />
        </mxCell>
        <mxCell id="SpXzyu9s4scRP7gDGXKe-47" value="No" style="text;html=1;align=center;verticalAlign=middle;whiteSpace=wrap;rounded=0;" parent="SpXzyu9s4scRP7gDGXKe-17" vertex="1">
          <mxGeometry x="320" y="760" width="60" height="30" as="geometry" />
        </mxCell>
        <mxCell id="SpXzyu9s4scRP7gDGXKe-48" value="" style="endArrow=classic;html=1;rounded=0;entryX=1;entryY=0;entryDx=0;entryDy=0;curved=1;" parent="SpXzyu9s4scRP7gDGXKe-17" target="SpXzyu9s4scRP7gDGXKe-29" edge="1">
          <mxGeometry width="50" height="50" relative="1" as="geometry">
            <mxPoint x="440" y="760" as="sourcePoint" />
            <mxPoint x="490" y="710" as="targetPoint" />
            <Array as="points">
              <mxPoint x="440" y="310" />
              <mxPoint x="170" y="310" />
            </Array>
          </mxGeometry>
        </mxCell>
        <mxCell id="SpXzyu9s4scRP7gDGXKe-18" value="" style="endArrow=classic;html=1;rounded=0;exitX=0.637;exitY=0.994;exitDx=0;exitDy=0;exitPerimeter=0;entryX=0.07;entryY=-0.003;entryDx=0;entryDy=0;entryPerimeter=0;curved=1;" parent="1" source="SpXzyu9s4scRP7gDGXKe-4" target="SpXzyu9s4scRP7gDGXKe-17" edge="1">
          <mxGeometry width="50" height="50" relative="1" as="geometry">
            <mxPoint x="300" y="360" as="sourcePoint" />
            <mxPoint x="350" y="310" as="targetPoint" />
            <Array as="points">
              <mxPoint x="141" y="310" />
              <mxPoint x="240" y="320" />
            </Array>
          </mxGeometry>
        </mxCell>
        <mxCell id="SpXzyu9s4scRP7gDGXKe-19" value="&lt;font style=&quot;font-size: 17px;&quot;&gt;3. Crack password&lt;/font&gt;" style="text;html=1;align=center;verticalAlign=middle;whiteSpace=wrap;rounded=0;fontSize=15;" parent="1" vertex="1">
          <mxGeometry x="210" y="290" width="110" height="50" as="geometry" />
        </mxCell>
        <mxCell id="DCbdhDT5XsXRO2FD8OZs-1" value="" style="whiteSpace=wrap;html=1;aspect=fixed;" vertex="1" parent="1">
          <mxGeometry x="1160" y="530" width="410" height="410" as="geometry" />
        </mxCell>
        <mxCell id="DCbdhDT5XsXRO2FD8OZs-3" value="Max password length:" style="text;html=1;align=center;verticalAlign=middle;whiteSpace=wrap;rounded=0;" vertex="1" parent="1">
          <mxGeometry x="1175" y="590" width="125" height="30" as="geometry" />
        </mxCell>
        <mxCell id="DCbdhDT5XsXRO2FD8OZs-4" value="Password cracker" style="text;html=1;align=center;verticalAlign=middle;whiteSpace=wrap;rounded=0;fontSize=20;" vertex="1" parent="1">
          <mxGeometry x="1265" y="540" width="200" height="30" as="geometry" />
        </mxCell>
        <mxCell id="DCbdhDT5XsXRO2FD8OZs-6" value="File" style="text;html=1;align=center;verticalAlign=middle;whiteSpace=wrap;rounded=0;" vertex="1" parent="1">
          <mxGeometry x="1175" y="710" width="60" height="30" as="geometry" />
        </mxCell>
        <mxCell id="DCbdhDT5XsXRO2FD8OZs-8" value="Upload!" style="labelPosition=center;verticalLabelPosition=middle;align=center;html=1;shape=mxgraph.basic.button;dx=10;whiteSpace=wrap;" vertex="1" parent="1">
          <mxGeometry x="1200" y="740" width="100" height="60" as="geometry" />
        </mxCell>
        <mxCell id="DCbdhDT5XsXRO2FD8OZs-13" value="3" style="rounded=0;whiteSpace=wrap;html=1;" vertex="1" parent="1">
          <mxGeometry x="1200" y="620" width="100" height="50" as="geometry" />
        </mxCell>
        <mxCell id="DCbdhDT5XsXRO2FD8OZs-18" value="Start!" style="labelPosition=center;verticalLabelPosition=middle;align=center;html=1;shape=mxgraph.basic.button;dx=10;whiteSpace=wrap;" vertex="1" parent="1">
          <mxGeometry x="1420" y="840" width="100" height="60" as="geometry" />
        </mxCell>
        <mxCell id="DCbdhDT5XsXRO2FD8OZs-20" value="" style="endArrow=classic;html=1;rounded=0;exitX=1;exitY=0.5;exitDx=0;exitDy=0;" edge="1" parent="1" source="DCbdhDT5XsXRO2FD8OZs-1">
          <mxGeometry width="50" height="50" relative="1" as="geometry">
            <mxPoint x="1580" y="730" as="sourcePoint" />
            <mxPoint x="1820" y="560" as="targetPoint" />
            <Array as="points">
              <mxPoint x="1690" y="735" />
              <mxPoint x="1690" y="560" />
            </Array>
          </mxGeometry>
        </mxCell>
        <mxCell id="DCbdhDT5XsXRO2FD8OZs-21" value="" style="whiteSpace=wrap;html=1;aspect=fixed;" vertex="1" parent="1">
          <mxGeometry x="1820" y="330" width="410" height="410" as="geometry" />
        </mxCell>
        <mxCell id="DCbdhDT5XsXRO2FD8OZs-22" value="Password cracked succesfully:&lt;span style=&quot;color: rgba(0, 0, 0, 0); font-family: monospace; font-size: 0px; text-align: start; text-wrap-mode: nowrap;&quot;&gt;Croot%3E%3CmxCell%20id%3D%220%22%2F%3E%3CmxCell%20id%3D%221%22%20parent%3D%220%22%2F%3E%3CmxCell%20id%3D%222%22%20value%3D%22Password%20is%3A%22%20style%3D%22text%3Bhtml%3D1%3Balign%3Dcenter%3BverticalAlign%3Dmiddle%3BwhiteSpace%3Dwrap%3Brounded%3D0%3B%22%20vertex%3D%221%22%20parent%3D%221%22%3E%3CmxGeometry%20x%3D%221850%22%20y%3D%22448%22%20width%3D%22130%22%20height%3D%2230%22%20as%3D%22geometry%22%2F%3E%3C%2FmxCell%3E%3CmxCell%20id%3D%223%22%20value%3D%22KubaJestSuper%26amp%3Blt%3B3%22%20style%3D%22text%3Bhtml%3D1%3Balign%3Dcenter%3BverticalAlign%3Dmiddle%3BwhiteSpace%3Dwrap%3Brounded%3D0%3B%22%20vertex%3D%221%22%20parent%3D%221%22%3E%3CmxGeometry%20x%3D%221950%22%20y%3D%22478%22%20width%3D%2260%22%20height%3D%2230%22%20as%3D%22geometry%22%2F%3E%3C%2FmxCell%3E%3C%2Froot%3E%3C%2FmxGraphModel%3E:::&lt;/span&gt;" style="text;html=1;align=center;verticalAlign=middle;whiteSpace=wrap;rounded=0;" vertex="1" parent="1">
          <mxGeometry x="1850" y="448" width="200" height="30" as="geometry" />
        </mxCell>
        <mxCell id="DCbdhDT5XsXRO2FD8OZs-23" value="Password cracker" style="text;html=1;align=center;verticalAlign=middle;whiteSpace=wrap;rounded=0;fontSize=20;" vertex="1" parent="1">
          <mxGeometry x="1925" y="378" width="200" height="30" as="geometry" />
        </mxCell>
        <mxCell id="DCbdhDT5XsXRO2FD8OZs-28" value="KubaJestSuper&amp;lt;3" style="text;html=1;align=center;verticalAlign=middle;whiteSpace=wrap;rounded=0;" vertex="1" parent="1">
          <mxGeometry x="1950" y="478" width="60" height="30" as="geometry" />
        </mxCell>
        <mxCell id="DCbdhDT5XsXRO2FD8OZs-30" value="" style="endArrow=classic;html=1;rounded=0;exitX=1;exitY=0.5;exitDx=0;exitDy=0;" edge="1" parent="1">
          <mxGeometry width="50" height="50" relative="1" as="geometry">
            <mxPoint x="1570" y="740" as="sourcePoint" />
            <mxPoint x="1820" y="915" as="targetPoint" />
            <Array as="points">
              <mxPoint x="1690" y="740" />
              <mxPoint x="1690" y="915" />
            </Array>
          </mxGeometry>
        </mxCell>
        <mxCell id="DCbdhDT5XsXRO2FD8OZs-31" value="" style="whiteSpace=wrap;html=1;aspect=fixed;" vertex="1" parent="1">
          <mxGeometry x="1820" y="790" width="410" height="410" as="geometry" />
        </mxCell>
        <mxCell id="DCbdhDT5XsXRO2FD8OZs-32" value="Password cracker" style="text;html=1;align=center;verticalAlign=middle;whiteSpace=wrap;rounded=0;fontSize=20;" vertex="1" parent="1">
          <mxGeometry x="1925" y="850" width="200" height="30" as="geometry" />
        </mxCell>
        <mxCell id="DCbdhDT5XsXRO2FD8OZs-33" value="Cannot crack password :(&lt;span style=&quot;color: rgba(0, 0, 0, 0); font-family: monospace; font-size: 0px; text-align: start; text-wrap-mode: nowrap;&quot;&gt;ot%3E%3CmxCell%20id%3D%220%22%2F%3E%3CmxCell%20id%3D%221%22%20parent%3D%220%22%2F%3E%3CmxCell%20id%3D%222%22%20value%3D%22Password%20is%3A%22%20style%3D%22text%3Bhtml%3D1%3Balign%3Dcenter%3BverticalAlign%3Dmiddle%3BwhiteSpace%3Dwrap%3Brounded%3D0%3B%22%20vertex%3D%221%22%20parent%3D%221%22%3E%3CmxGeometry%20x%3D%221850%22%20y%3D%22448%22%20width%3D%22130%22%20height%3D%2230%22%20as%3D%22geometry%22%2F%3E%3C%2FmxCell%3E%3CmxCell%20id%3D%223%22%20value%3D%22KubaJestSuper%26amp%3Blt%3B3%22%20style%3D%22text%3Bhtml%3D1%3Balign%3Dcenter%3BverticalAlign%3Dmiddle%3BwhiteSpace%3Dwrap%3Brounded%3D0%3B%22%20vertex%3D%221%22%20parent%3D%221%22%3E%3CmxGeometry%20x%3D%221950%22%20y%3D%22478%22%20width%3D%2260%22%20height%3D%2230%22%20as%3D%22geometry%22%2F%3E%3C%2FmxCell%3E%3C%2Froot%3E%3C%2FmxGraphModel%3E. :( :(&lt;/span&gt;" style="text;html=1;align=center;verticalAlign=middle;whiteSpace=wrap;rounded=0;" vertex="1" parent="1">
          <mxGeometry x="1850" y="910" width="220" height="30" as="geometry" />
        </mxCell>
        <mxCell id="DCbdhDT5XsXRO2FD8OZs-35" value="Success&lt;span style=&quot;color: rgba(0, 0, 0, 0); font-family: monospace; font-size: 0px; text-align: start; text-wrap-mode: nowrap;&quot;&gt;%3CmxGraphModel%3E%3Croot%3E%3CmxCell%20id%3D%220%22%2F%3E%3CmxCell%20id%3D%221%22%20parent%3D%220%22%2F%3E%3CmxCell%20id%3D%222%22%20value%3D%22Password%20cracked%2C%20password%26amp%3Bnbsp%3B%26lt%3Bspan%20style%3D%26quot%3Bcolor%3A%20rgba(0%2C%200%2C%200%2C%200)%3B%20font-family%3A%20monospace%3B%20font-size%3A%200px%3B%20text-align%3A%20start%3B%20text-wrap-mode%3A%20nowrap%3B%26quot%3B%26gt%3B%253CmxGraphModel%253E%253Croot%253E%253CmxCell%2520id%253D%25220%2522%252F%253E%253CmxCell%2520id%253D%25221%2522%2520parent%253D%25220%2522%252F%253E%253CmxCell%2520id%253D%25222%2522%2520value%253D%2522Password%2520is%253A%2522%2520style%253D%2522text%253Bhtml%253D1%253Balign%253Dcenter%253BverticalAlign%253Dmiddle%253BwhiteSpace%253Dwrap%253Brounded%253D0%253B%2522%2520vertex%253D%25221%2522%2520parent%253D%25221%2522%253E%253CmxGeometry%2520x%253D%25221850%2522%2520y%253D%2522448%2522%2520width%253D%2522130%2522%2520height%253D%252230%2522%2520as%253D%2522geometry%2522%252F%253E%253C%252FmxCell%253E%253CmxCell%2520id%253D%25223%2522%2520value%253D%2522KubaJestSuper%2526amp%253Blt%253B3%2522%2520style%253D%2522text%253Bhtml%253D1%253Balign%253Dcenter%253BverticalAlign%253Dmiddle%253BwhiteSpace%253Dwrap%253Brounded%253D0%253B%2522%2520vertex%253D%25221%2522%2520parent%253D%25221%2522%253E%253CmxGeometry%2520x%253D%25221950%2522%2520y%253D%2522478%2522%2520width%253D%252260%2522%2520height%253D%252230%2522%2520as%253D%2522geometry%2522%252F%253E%253C%252FmxCell%253E%253C%252Froot%253E%253C%252FmxGraphModel%253E%26lt%3B%2Fspan%26gt%3Bis%3A%22%20style%3D%22text%3Bhtml%3D1%3Balign%3Dcenter%3BverticalAlign%3Dmiddle%3BwhiteSpace%3Dwrap%3Brounded%3D0%3B%22%20vertex%3D%221%22%20parent%3D%221%22%3E%3CmxGeometry%20x%3D%221850%22%20y%3D%22448%22%20width%3D%22130%22%20height%3D%2230%22%20as%3D%22geometry%22%2F%3E%3C%2FmxCell%3E%3C%2Froot%3E%3C%2FmxGraphModel%3E&lt;/span&gt;" style="text;html=1;align=center;verticalAlign=middle;whiteSpace=wrap;rounded=0;" vertex="1" parent="1">
          <mxGeometry x="1640" y="500" width="60" height="30" as="geometry" />
        </mxCell>
        <mxCell id="DCbdhDT5XsXRO2FD8OZs-36" value="Failure" style="text;html=1;align=center;verticalAlign=middle;whiteSpace=wrap;rounded=0;" vertex="1" parent="1">
          <mxGeometry x="1650" y="930" width="60" height="30" as="geometry" />
        </mxCell>
      </root>
    </mxGraphModel>
  </diagram>
</mxfile>
